# xmcd
#
# Track frame offsets: 
#        150
#        13110
#        25731
#        39169
#        57775
#        70097
#        83065
#        100293
#        115223
#        129903
#        144266
#        159819
#        174572
#        188259
#
# Disc length: 2777 seconds
#
# Revision: 0
# Processed by: cddbd v1.5.2PL0 Copyright (c) Steve Scherf et al.
# Submitted via: ExactAudioCopy v1.3
#
DISCID=9d0ad70e
DTITLE=Davis, David and the Warrior River Boys - Didn't He Ramble - So
DTITLE=ngs of Charlie Poole
DYEAR=2018
DGENRE=Country
TTITLE0=He Rambled
TTITLE1=One Moonlight Night
TTITLE2=Ramblin' Blues
TTITLE3=May I Sleep In Your Bard Tonight, Mister?
TTITLE4=Girl I Left In Sunny Tennessee
TTITLE5=The Highwayman
TTITLE6=Leaving Home
TTITLE7=Goodbye Mary Dear
TTITLE8=Milwaukee Blues
TTITLE9=Old And Only In The Way
TTITLE10=White House Blues
TTITLE11=If The River Was Whiskey
TTITLE12=Where The Whippoorwill Is Whispering Goodnight
TTITLE13=Sweet Sunny South
EXTD=
EXTT0=
EXTT1=
EXTT2=
EXTT3=
EXTT4=
EXTT5=
EXTT6=
EXTT7=
EXTT8=
EXTT9=
EXTT10=
EXTT11=
EXTT12=
EXTT13=
PLAYORDER=
